<svg width="1000" height="1000" viewBox="0 0 1000 1000" fill="none" xmlns="http://www.w3.org/2000/svg">
<path d="M493 751C492.2 871 395.333 880 347 869.5" stroke="black"/>
<rect width="1000" height="1000" rx="96" fill="white"/>
<path d="M200 500C200 334.315 334.315 200 500 200C665.685 200 800 334.315 800 500C800 665.685 665.685 800 500 800C334.315 800 200 665.685 200 500Z" fill="#2A2A2A"/>
<path d="M365 500C365 425.442 425.442 365 500 365C574.558 365 635 425.442 635 500C635 574.558 574.558 635 500 635C425.442 635 365 574.558 365 500Z" fill="#00C9C9"/>
<path d="M400 500C400 444.772 444.772 400 500 400C555.228 400 600 444.772 600 500C600 555.228 555.228 600 500 600C444.772 600 400 555.228 400 500Z" fill="white"/>
<rect x="579" y="626" width="250" height="250" rx="45" fill="#00C9C9"/>
<path d="M697.332 807H657.113V693.545H697.664C709.076 693.545 718.9 695.817 727.135 700.359C735.371 704.865 741.705 711.347 746.137 719.804C750.606 728.261 752.84 738.381 752.84 750.162C752.84 761.98 750.606 772.136 746.137 780.631C741.705 789.125 735.334 795.643 727.025 800.186C718.752 804.729 708.854 807 697.332 807ZM681.1 786.447H696.334C703.425 786.447 709.39 785.192 714.228 782.68C719.103 780.132 722.759 776.199 725.197 770.881C727.671 765.526 728.908 758.619 728.908 750.162C728.908 741.778 727.671 734.928 725.197 729.609C722.759 724.291 719.121 720.376 714.283 717.865C709.445 715.354 703.481 714.098 696.39 714.098H681.1V786.447Z" fill="white"/>
</svg>
